<svg width="369" height="70" viewBox="0 0 369 70" fill="currentColor" xmlns="http://www.w3.org/2000/svg">
<path d="M81.5645 32.7031H88.7049L95.41 43.8491L102.289 32.7031H109.386L100.156 46.6356C99.314 47.9418 97.7611 48.5949 95.497 48.5949C93.204 48.5949 91.6366 47.9418 90.7948 46.6356L81.5645 32.7031ZM106.129 48.3772L114.793 34.6189C115.664 33.2256 117.434 32.529 120.105 32.529C122.746 32.529 124.502 33.2256 125.373 34.6189L134.037 48.3772H126.984L124.851 44.9811H115.315L113.182 48.3772H106.129ZM117.318 41.8028H122.848L119.669 36.7087L117.318 41.8028ZM135.901 44.4587V32.7031H142.65V44.3716C142.766 44.778 143.535 44.9811 144.957 44.9811H149.529C150.893 44.9811 151.648 44.7925 151.793 44.4151L151.837 44.2845V32.7031H158.585V44.4587C158.585 45.4746 158.353 46.2002 157.889 46.6356C156.698 47.7967 154.594 48.3772 151.575 48.3772H142.911C139.718 48.3772 137.556 47.7531 136.424 46.505C136.075 46.0987 135.901 45.4165 135.901 44.4587ZM162.688 44.5458V32.7031H169.437V44.2845C169.437 44.7489 170.003 44.9811 171.135 44.9811H183.064L183.021 48.3772H170.525C170.119 48.3772 169.741 48.3627 169.393 48.3337C167.013 48.2466 165.3 47.9128 164.255 47.3323C163.21 46.7227 162.688 45.7939 162.688 44.5458ZM184.336 36.0556V32.7031H204.538V36.0556H197.789V48.3772H191.041V36.0556H184.336ZM217.18 32.7031H224.321L231.026 43.8491L237.905 32.7031H245.002L235.771 46.6356C234.93 47.9418 233.377 48.5949 231.113 48.5949C228.82 48.5949 227.252 47.9418 226.411 46.6356L217.18 32.7031ZM246.577 48.3772V32.7031H253.326V48.3772H246.577ZM257.115 35.7944C257.115 35.5332 257.173 35.2719 257.289 35.0107C258.073 33.4723 260.148 32.7031 263.515 32.7031H277.23V36.0556L265.344 36.0992C264.357 36.1282 263.863 36.3749 263.863 36.8393V37.8843C263.863 38.0004 263.878 38.0729 263.907 38.102C264.052 38.5083 264.618 38.7405 265.605 38.7986C265.692 38.7986 265.837 38.7986 266.04 38.7986H270.917C272.368 38.7986 273.645 38.9873 274.748 39.3646C276.403 39.8871 277.23 40.7288 277.23 41.8899V45.0682C277.23 46.3163 276.374 47.2307 274.661 47.8112C273.5 48.1885 272.107 48.3772 270.481 48.3772H257.158V44.9811H268.914C269.959 44.807 270.481 44.5022 270.481 44.0668V42.9348C270.481 42.4994 270.002 42.2527 269.044 42.1946H263.428C261.164 42.1946 259.408 41.7302 258.16 40.8014C257.463 40.2789 257.115 39.7129 257.115 39.1034V35.7944ZM281.017 48.3772V32.7031H287.766V48.3772H281.017ZM291.86 36.0556C291.86 35.7944 291.918 35.5187 292.034 35.2284C292.759 33.5449 295.067 32.7031 298.956 32.7031H306.924C311.597 32.7031 313.934 33.8206 313.934 36.0556V44.9811C313.934 47.2452 311.583 48.3772 306.881 48.3772H298.956C296.809 48.3772 295.212 48.1885 294.167 47.8112C293.122 47.4048 292.426 46.7372 292.077 45.8084C291.961 45.5181 291.903 45.2569 291.903 45.0247L291.86 36.0556ZM298.608 37.1441L298.652 43.8927C298.652 44.6183 299.392 44.9811 300.872 44.9811H305.008C306.489 44.9811 307.229 44.6619 307.229 44.0233V37.1441C307.229 36.4185 306.489 36.0556 305.008 36.0556H300.872C299.363 36.0556 298.608 36.4185 298.608 37.1441ZM318.009 48.3772V35.7944C318.009 34.8365 318.531 34.0528 319.576 33.4433C320.65 32.8337 321.985 32.529 323.582 32.529C324.307 32.529 325.047 32.587 325.802 32.7031C327.66 33.0514 328.908 33.8497 329.546 35.0978L334.292 44.1539V32.7031H340.692V45.6778C340.692 46.4905 340.17 47.1726 339.125 47.7241C338.08 48.2756 336.774 48.5659 335.206 48.5949C332.188 48.6529 330.199 47.7677 329.242 45.939L324.452 36.9264V48.3772H318.009Z" fill="currentColor"/>
<path d="M59.8695 3.68527C78.5403 25.1344 67.29 45.4501 60.0146 52.4184L55.3302 47.833C72.1909 31.2158 66.5153 12.0499 59.8695 3.68527Z" fill="#1848C5"/>
<path d="M27.3129 50.9373C36.5529 24.0433 59.772 23.6285 69.4444 26.445L67.8156 32.7945C44.9943 26.5014 31.2339 40.9995 27.3129 50.9373Z" fill="#1848C5"/>
<path d="M84.2551 55.353C56.3442 60.7979 44.3754 40.897 41.9784 31.1122L48.2917 29.348C54.2523 52.2584 73.6882 56.9262 84.2551 55.353Z" fill="#1848C5"/>
</svg>
